<svg width="52" height="35" viewBox="0 0 52 35" fill="none" xmlns="http://www.w3.org/2000/svg">
<path d="M15.6071 19.9654C12.4331 19.9654 6.05784 13.5806 3.54567 10.9248C4.39339 10.5272 4.98563 9.67022 4.98563 8.67429C4.98563 7.30008 3.87081 6.18832 2.49281 6.18832C1.1148 6.18448 0 7.30008 0 8.67044C0 10.0447 1.1148 11.1564 2.49281 11.1564C2.64377 11.1564 2.79086 11.141 2.93408 11.114L10.5596 34.117H25.9732V2C25.9732 2 22.8881 19.9654 15.6071 19.9654Z" fill="#DB631A"/>
<path d="M19.6788 16.0614C19.6788 16.0614 17.1589 12.4714 15.7615 9.69981C16.4893 9.46819 17.0196 8.78881 17.0196 7.98586C17.0196 6.99381 16.2105 6.18701 15.2157 6.18701C14.221 6.18701 13.4119 6.99381 13.4119 7.98586C13.4119 8.95862 14.19 9.74999 15.1577 9.78085C14.9138 11.7496 14.3022 15.8375 13.1797 17.8294C13.1835 17.8294 16.4312 21.4927 19.6788 16.0614Z" fill="#DB631A"/>
<path d="M38.7665 17.8294C37.644 15.8375 37.0326 11.7496 36.7887 9.78085C37.7602 9.74999 38.5346 8.95862 38.5346 7.98586C38.5346 6.99381 37.7294 6.18701 36.7306 6.18701C35.7359 6.18701 34.9268 6.99381 34.9268 7.98586C34.9268 8.78881 35.4571 9.47204 36.1849 9.69981C34.7875 12.4753 32.2715 16.0614 32.2715 16.0614C35.5191 21.4927 38.7665 17.8294 38.7665 17.8294Z" fill="#DB631A" fill-opacity="0.7"/>
<path d="M49.4571 6.18448C48.0826 6.18448 46.9642 7.2962 46.9642 8.67044C46.9642 9.66637 47.5524 10.5233 48.404 10.9209C45.8918 13.5768 39.5205 19.9616 36.3426 19.9616C29.0616 19.9654 25.9727 2 25.9727 2V34.117H41.3862L49.0118 11.114C49.155 11.141 49.302 11.1564 49.453 11.1564C50.8312 11.1564 51.9459 10.0447 51.9459 8.67044C51.9496 7.30008 50.8349 6.18448 49.4571 6.18448Z" fill="#DB631A" fill-opacity="0.7"/>
<path d="M28.4592 2.48549C28.4592 3.85945 27.3447 4.971 25.9669 4.971C24.593 4.971 23.4746 3.85945 23.4746 2.48549C23.4746 1.11152 24.593 0 25.9669 0C27.3447 0 28.4592 1.11152 28.4592 2.48549Z" fill="#DB631A"/>
</svg>
