<svg width="64" height="43" viewBox="0 0 64 43" fill="none" xmlns="http://www.w3.org/2000/svg">
<path d="M19.2122 25.177C15.305 25.177 7.45715 17.3174 4.36468 14.0481C5.40823 13.5587 6.13726 12.5037 6.13726 11.2777C6.13726 9.58611 4.76493 8.21754 3.06862 8.21754C1.3723 8.2128 0 9.58611 0 11.273C0 12.9647 1.3723 14.3332 3.06862 14.3332C3.25445 14.3332 3.43552 14.3142 3.61182 14.281L12.9988 42.5974H31.9727V3.06175C31.9727 3.06175 28.1751 25.177 19.2122 25.177Z" fill="#485EB0"/>
<path d="M24.2239 20.3711C24.2239 20.3711 21.122 15.9519 19.4019 12.5401C20.2977 12.2549 20.9505 11.4186 20.9505 10.4302C20.9505 9.209 19.9546 8.21584 18.73 8.21584C17.5054 8.21584 16.5095 9.209 16.5095 10.4302C16.5095 11.6277 17.4673 12.6018 18.6585 12.6398C18.3583 15.0633 17.6055 20.0955 16.2236 22.5475C16.2284 22.5475 20.2262 27.057 24.2239 20.3711Z" fill="#485EB0"/>
<path d="M47.7209 22.5475C46.3391 20.0955 45.5864 15.0633 45.2862 12.6398C46.4821 12.6018 47.4354 11.6277 47.4354 10.4302C47.4354 9.209 46.4442 8.21584 45.2148 8.21584C43.9902 8.21584 42.9943 9.209 42.9943 10.4302C42.9943 11.4186 43.6471 12.2597 44.5429 12.5401C42.8228 15.9567 39.7256 20.3711 39.7256 20.3711C43.7233 27.057 47.7209 22.5475 47.7209 22.5475Z" fill="#485EB0" fill-opacity="0.7"/>
<path d="M60.8818 8.2128C59.1898 8.2128 57.8131 9.58132 57.8131 11.273C57.8131 12.499 58.5371 13.5539 59.5854 14.0433C56.493 17.3126 48.6499 25.1723 44.7379 25.1723C35.7751 25.177 31.9727 3.06175 31.9727 3.06175V42.5974H50.9466L60.3336 14.281C60.5099 14.3142 60.6908 14.3332 60.8767 14.3332C62.5732 14.3332 63.9454 12.9647 63.9454 11.273C63.95 9.58611 62.5778 8.2128 60.8818 8.2128Z" fill="#485EB0" fill-opacity="0.7"/>
<path d="M35.0405 3.06021C35.0405 4.75188 33.6683 6.12044 31.9719 6.12044C30.2804 6.12044 28.9033 4.75188 28.9033 3.06021C28.9033 1.36854 30.2804 0 31.9719 0C33.6683 0 35.0405 1.36854 35.0405 3.06021Z" fill="#485EB0"/>
</svg>
