<svg width="52" height="35" viewBox="0 0 52 35" fill="none" xmlns="http://www.w3.org/2000/svg">
<path d="M15.6041 20.4486C12.4306 20.4486 6.05666 14.0651 3.54497 11.4098C4.39254 11.0123 4.98465 10.1555 4.98465 9.15973C4.98465 7.78579 3.87005 6.67425 2.49232 6.67425C1.11458 6.6704 0 7.78579 0 9.15588C0 10.5299 1.11458 11.6414 2.49232 11.6414C2.64325 11.6414 2.79031 11.6259 2.93351 11.5989L10.5575 34.5974H25.9681V2.48674C25.9681 2.48674 22.8836 20.4486 15.6041 20.4486Z" fill="#06B181"/>
<path d="M19.6746 16.5453C19.6746 16.5453 17.1552 12.956 15.7581 10.185C16.4857 9.95339 17.0159 9.27414 17.0159 8.47135C17.0159 7.47949 16.207 6.67285 15.2124 6.67285C14.2178 6.67285 13.409 7.47949 13.409 8.47135C13.409 9.44392 14.1868 10.2351 15.1543 10.266C14.9106 12.2343 14.2991 16.3215 13.1768 18.313C13.1806 18.313 16.4276 21.9756 19.6746 16.5453Z" fill="#06B181"/>
<path d="M38.7594 18.313C37.6371 16.3215 37.0258 12.2343 36.782 10.266C37.7532 10.2351 38.5275 9.44392 38.5275 8.47135C38.5275 7.47949 37.7224 6.67285 36.7239 6.67285C35.7293 6.67285 34.9205 7.47949 34.9205 8.47135C34.9205 9.27414 35.4507 9.95724 36.1782 10.185C34.7812 12.9599 32.2656 16.5453 32.2656 16.5453C35.5126 21.9756 38.7594 18.313 38.7594 18.313Z" fill="#06B181" fill-opacity="0.7"/>
<path d="M49.4476 6.6704C48.0734 6.6704 46.9552 7.7819 46.9552 9.15588C46.9552 10.1516 47.5433 11.0084 48.3947 11.4059C45.883 14.0612 39.513 20.4448 36.3357 20.4448C29.0561 20.4486 25.9678 2.48674 25.9678 2.48674V34.5974H41.3784L49.0024 11.5989C49.1456 11.6259 49.2925 11.6414 49.4435 11.6414C50.8214 11.6414 51.9359 10.5299 51.9359 9.15588C51.9396 7.78579 50.8251 6.6704 49.4476 6.6704Z" fill="#06B181" fill-opacity="0.7"/>
<path d="M28.4592 2.48549C28.4592 3.85945 27.3447 4.971 25.9669 4.971C24.593 4.971 23.4746 3.85945 23.4746 2.48549C23.4746 1.11152 24.593 0 25.9669 0C27.3447 0 28.4592 1.11152 28.4592 2.48549Z" fill="#06B181"/>
</svg>
