<svg width="121" height="103" viewBox="0 0 121 103" fill="none" xmlns="http://www.w3.org/2000/svg">
<path d="M48.1195 76.0515C57.0605 76.4939 66.1153 76.6106 74.7234 79.4064C78.9421 80.7401 82.9176 82.7467 86.4963 85.3485C89.9837 87.93 92.28 91.757 95.9953 93.8843C98.16 95.1566 100.639 95.7934 103.149 95.7215C105.659 95.6497 108.098 94.8721 110.186 93.4781C123.596 84.7675 121.098 63.6558 116.813 50.8993C109.394 28.819 85.834 15.3571 64.6298 9.32614C48.8327 4.83231 31.1512 5.64795 17.858 16.0876C6.63614 24.8994 1.21285 38.8394 4.88658 52.8123C8.07755 64.9494 20.199 71.5494 31.6775 74.1557C37.0064 75.3604 42.5502 75.7756 48.1195 76.0515Z" fill="#3B3B56"/>
<path d="M63.3427 6.71646C69.747 4.80411 75.873 2.12513 82.6973 0.747099C91.1034 -0.950283 100.94 0.0761399 107.832 5.57337C116.356 12.3716 115.991 23.7051 112.899 33.2693C110.106 41.9053 105.617 49.9966 103.279 58.7743C99.6084 72.5565 98.5366 85.2197 86.4095 94.7367C68.3764 108.888 39.3886 104.513 30.8607 81.5329C29.0769 76.7259 28.4041 71.5119 26.086 66.9361C21.1113 57.1146 9.28555 53.6795 3.22232 44.7894C-3.81697 34.4721 1.59018 22.573 10.6518 15.6667C22.7105 6.47649 37.0463 9.34463 51.21 8.88735C55.3316 8.69606 59.4104 7.96617 63.3427 6.71646Z" fill="#DB631A"/>
<path d="M34.0254 48.2148V45.2654C34.0589 45.0722 34.0975 44.8795 34.126 44.6857C34.305 43.4642 34.4093 42.2267 34.6722 41.0201C35.5661 36.8458 37.4045 32.9318 40.0463 29.5783C42.688 26.2248 46.0629 23.5212 49.9119 21.6747C53.7609 19.8282 57.9818 18.8879 62.2506 18.9262C66.5195 18.9644 70.7228 19.9801 74.5381 21.8952C78.3534 23.8104 81.6793 26.5742 84.2606 29.9745C86.8418 33.3748 88.6097 37.3209 89.4288 41.5107C90.2478 45.7004 90.0962 50.0221 88.9855 54.1441C87.8749 58.2661 85.8346 62.0788 83.0215 65.2898C78.8452 70.1309 73.11 73.3624 66.8056 74.4266C65.7531 74.613 64.6857 74.7188 63.6252 74.8616H60.5678C59.775 74.7728 58.9791 74.7019 58.1882 74.5926C54.2488 74.0637 50.4721 72.6823 47.1211 70.5447C46.971 70.4345 46.7959 70.3635 46.6114 70.3381C46.427 70.3127 46.2391 70.3338 46.0649 70.3994C42.8714 71.4407 39.6692 72.4565 36.4702 73.4798C36.2944 73.5357 36.1167 73.5873 35.8682 73.6624C36.9865 70.3379 38.0601 67.1182 39.1548 63.908C39.2361 63.7212 39.2655 63.516 39.2397 63.314C39.2139 63.1119 39.1339 62.9209 39.0082 62.7606C36.6868 59.4661 35.1338 55.693 34.4634 51.719C34.264 50.5609 34.1683 49.3834 34.0254 48.2148ZM71.1205 62.6805L71.1516 62.5525C71.4788 62.5492 71.8057 62.5284 72.1307 62.4903C72.5808 62.4271 73.0246 62.3251 73.4572 62.1857C77.3931 60.7978 78.7345 58.9123 78.8414 55.2429C78.8684 54.9978 78.8149 54.7507 78.6889 54.5388C78.5629 54.3269 78.3712 54.1617 78.143 54.0685C76.0598 53.0745 73.9903 52.0555 71.899 51.0801C70.8117 50.5731 70.1805 50.7819 69.4567 51.7636C68.928 52.4805 68.4061 53.2039 67.8568 53.9047C66.9963 55.0032 66.3974 55.1502 65.1132 54.6264C60.4336 52.7178 56.9823 49.4232 54.3946 45.148C54.2224 44.9095 54.1403 44.6177 54.1631 44.3244C54.1858 44.0311 54.3119 43.7553 54.5188 43.5462C55.0196 42.9691 55.5129 42.3852 56.0385 41.8304C56.4609 41.4549 56.7409 40.9454 56.8315 40.3876C56.922 39.8298 56.8175 39.2577 56.5356 38.7679C55.5837 36.7692 54.7959 34.6935 53.8988 32.6675C53.8312 32.503 53.7317 32.3535 53.6061 32.2276C53.4805 32.1017 53.3312 32.0017 53.1669 31.9337C51.6988 31.5795 50.1667 31.4987 48.9421 32.5052C46.2239 34.7369 45.3802 37.7187 45.8977 41.1172C46.2018 42.9168 46.8724 44.6348 47.8679 46.1646C49.9822 49.591 52.5566 52.7109 55.5191 55.4373C58.9266 58.4746 62.9959 60.6744 67.4033 61.8621C68.6248 62.2112 69.8823 62.4115 71.1205 62.6805Z" fill="white"/>
</svg>
