<svg width="121" height="103" viewBox="0 0 121 103" fill="none" xmlns="http://www.w3.org/2000/svg">
<path d="M48.1212 76.0515C57.0622 76.4939 66.117 76.6106 74.7257 79.4064C78.9442 80.7403 82.9195 82.7468 86.498 85.3485C89.9854 87.93 92.2817 91.757 95.997 93.8843C98.1617 95.1566 100.641 95.7934 103.151 95.7215C105.661 95.6497 108.1 94.8721 110.188 93.4781C123.598 84.7675 121.1 63.6558 116.815 50.8993C109.397 28.819 85.8357 15.3571 64.6315 9.32614C48.8344 4.83231 31.1529 5.64795 17.8597 16.0876C6.63782 24.8994 1.21519 38.8394 4.88829 52.8123C8.07927 64.9494 20.2007 71.5494 31.6792 74.1557C37.0087 75.3604 42.555 75.7756 48.1212 76.0515Z" fill="#3B3B56"/>
<path d="M63.3452 6.71646C69.7495 4.80411 75.8755 2.12513 82.6998 0.747099C91.1059 -0.950283 100.942 0.0761399 107.835 5.57337C116.359 12.3716 115.993 23.7051 112.901 33.2693C110.109 41.9053 105.619 49.9966 103.281 58.7743C99.6108 72.5565 98.5391 85.2197 86.412 94.7367C68.3789 108.888 39.3911 104.513 30.8632 81.5329C29.0794 76.7259 28.4066 71.5119 26.0892 66.9361C21.1138 57.1146 9.28804 53.6795 3.22232 44.7894C-3.81697 34.4721 1.59018 22.573 10.6518 15.6667C22.7105 6.47649 37.0463 9.34463 51.21 8.88735C55.3325 8.69627 59.4122 7.96639 63.3452 6.71646Z" fill="#DB631A"/>
<path d="M33.8955 50.9435C37.8675 50.9485 41.84 50.9634 45.8119 50.9435C46.0417 50.9313 46.2713 50.9715 46.4831 51.0613C46.695 51.151 46.8836 51.2881 47.0346 51.4617C47.8485 52.3234 48.6886 53.1634 49.5546 53.973C49.7943 54.1905 50.1013 54.3192 50.4245 54.3376C53.7565 54.3625 57.0891 54.3531 60.4217 54.3531H61.0872V64.5908H60.3851C51.8 64.5908 43.215 64.5908 34.6299 64.5908C34.3857 64.5908 34.1416 64.6088 33.898 64.6181L33.8955 50.9435Z" fill="white"/>
<path d="M33.8955 68.0138C34.121 68.0082 34.3466 67.9968 34.5721 67.9968H61.1374V74.7965H33.8955V68.0138Z" fill="white"/>
<path d="M91.7488 20.3197V30.4922H64.5615V16.9478C64.7566 16.9378 64.9387 16.9211 65.1207 16.9211C68.9634 16.9211 72.8061 16.9257 76.6488 16.912C76.8143 16.9046 76.9794 16.9343 77.132 16.9987C77.2846 17.0632 77.421 17.1607 77.5311 17.2845C78.3965 18.1773 79.2937 19.0385 80.156 19.9338C80.2721 20.0648 80.4162 20.1682 80.5774 20.2363C80.7387 20.3043 80.9131 20.3352 81.088 20.327C84.4225 20.3115 87.7563 20.3179 91.0908 20.3179L91.7488 20.3197Z" fill="white"/>
<path d="M91.7481 33.999V40.7238H64.5801V33.999H91.7481Z" fill="white"/>
<path d="M44.1112 47.532H40.7295V27.1478H56.4433L54.2824 22.7927L57.2926 21.2861C57.3914 21.457 57.479 21.5968 57.5523 21.7391C58.6651 23.9571 59.7809 26.1737 60.8794 28.3992C60.9968 28.6009 61.0311 28.8406 60.975 29.0672C59.7852 31.4977 58.5657 33.9131 57.3194 36.402L54.2793 34.8873L56.4203 30.5862H44.1112V47.532Z" fill="white"/>
<path d="M68.612 55.3267L71.6129 56.8299L69.4687 61.1416H79.8407V44.2007H83.233V64.5736H69.4514C70.1932 66.0647 70.889 67.4693 71.6135 68.9288L68.584 70.4462C68.4331 70.1542 68.3026 69.9093 68.179 69.6614C67.1178 67.5422 66.051 65.4259 65.0104 63.2974C64.9003 63.075 64.8829 62.8181 64.9619 62.5829C66.1175 60.217 67.3029 57.8649 68.4821 55.5102C68.5214 55.4464 68.5648 55.3849 68.612 55.3267Z" fill="white"/>
</svg>
