<svg width="121" height="103" viewBox="0 0 121 103" fill="none" xmlns="http://www.w3.org/2000/svg">
<path d="M75.8573 76.434C66.9162 76.8764 57.8615 76.9931 49.2528 79.789C45.0342 81.1227 41.0589 83.1292 37.4805 85.731C33.9925 88.3125 31.6968 92.1397 27.9814 94.267C25.8167 95.5393 23.3374 96.1759 20.8275 96.1041C18.3176 96.0322 15.8788 95.2547 13.7904 93.8607C0.380366 85.1501 2.87859 64.0384 7.16367 51.282C14.5819 29.2017 38.1421 15.7396 59.3463 9.70868C75.144 5.21547 92.8249 6.03049 106.119 16.4701C117.34 25.282 122.763 39.2221 119.09 53.195C115.899 65.332 103.778 71.9321 92.2992 74.5384C86.9698 75.7425 81.4228 76.1582 75.8573 76.434Z" fill="#3B3B56"/>
<path d="M51.564 6.71646C45.1597 4.80411 39.0331 2.12513 32.2088 0.747099C23.8033 -0.950283 13.9669 0.0761399 7.0742 5.57337C-1.44936 12.3716 -1.08399 23.7052 2.0082 33.2694C4.8003 41.9055 9.28981 49.9966 11.6277 58.7743C15.2984 72.5565 16.3701 85.2198 28.4972 94.7368C46.5303 108.888 75.5181 104.513 84.046 81.5331C85.8297 76.7261 86.502 71.5121 88.82 66.9362C93.7954 57.1142 105.621 53.6796 111.687 44.7895C118.726 34.4723 113.319 22.5732 104.257 15.6669C92.1987 6.47664 77.8628 9.34463 63.6992 8.88735C59.5767 8.69635 55.497 7.96646 51.564 6.71646Z" fill="#DB631A"/>
<path d="M22.0109 30.7177C22.4545 29.6155 22.7304 28.4008 23.3778 27.4322C24.1055 26.2864 25.1367 25.3647 26.3568 24.7699C27.5769 24.1751 28.9381 23.9305 30.2891 24.063C30.4754 24.073 30.6618 24.0841 30.8905 24.0972C32.3984 17.9364 36.0746 13.9036 42.5274 13.1916C48.9801 12.4796 53.4523 15.6177 56.3394 21.3423C59.577 18.0177 63.3899 16.5975 67.8868 17.9041C72.3838 19.2107 74.8628 22.4295 75.7835 26.9749C76.4794 26.7662 77.133 26.5121 77.8102 26.3767C78.6956 26.1936 79.6094 26.1953 80.4942 26.3815C81.3789 26.5678 82.2158 26.9345 82.9523 27.4589C83.6889 27.9834 84.3092 28.6543 84.7747 29.4295C85.2401 30.2047 85.5405 31.0675 85.6572 31.9641C85.7738 32.8607 85.7042 33.7718 85.4527 34.6403C85.2011 35.5087 84.7731 36.3159 84.1953 37.0114C83.6175 37.7068 82.9024 38.2757 82.0947 38.6822C81.287 39.0886 80.4042 39.3239 79.5014 39.3735C76.5005 39.4978 73.4909 39.4145 70.4851 39.3996C70.3839 39.3817 70.2878 39.3419 70.2036 39.283C70.1193 39.2241 70.049 39.1476 69.9974 39.0586C69.7022 38.4704 69.2416 37.9811 68.6722 37.651C68.1027 37.3209 67.4493 37.1642 66.7921 37.2002C66.1627 37.2046 65.5327 37.2003 64.8934 37.1524C65.7122 36.9523 66.4765 36.5737 67.1317 36.0435C67.7869 35.5133 68.3168 34.8447 68.6833 34.0857C69.0816 33.2611 69.2663 32.3497 69.2203 31.4352C69.1744 30.5206 68.8992 29.6323 68.4202 28.8519C67.9412 28.0714 67.2738 27.4238 66.4791 26.9687C65.6845 26.5136 64.7882 26.2656 63.8727 26.2474C58.9806 26.2021 54.0878 26.2344 49.1957 26.2332H48.3881V17.4791H39.6098V26.2033L40.6784 26.2593C40.4788 27.8619 40.9156 29.4789 41.8949 30.7631C42.4112 31.3966 43.0594 31.91 43.7942 32.2678C44.5291 32.6255 45.333 32.8189 46.1502 32.8345C45.2803 34.1144 44.8959 35.6628 45.066 37.201C43.9607 37.201 42.9107 37.1935 41.8601 37.201C41.2809 37.187 40.7014 37.2116 40.1254 37.2748C39.6291 37.3387 39.1566 37.5255 38.7509 37.8185C38.3452 38.1114 38.0191 38.5012 37.8024 38.9523C37.7462 39.1027 37.6416 39.2302 37.5051 39.3147C37.3686 39.3992 37.2078 39.4358 37.0482 39.4189C34.6251 39.3996 32.1977 39.4189 29.7722 39.4065C27.9406 39.4208 26.1639 38.7818 24.761 37.6041C23.3582 36.4265 22.421 34.7875 22.1178 32.9811C22.0902 32.8844 22.0534 32.7905 22.0078 32.7008L22.0109 30.7177ZM24.2091 31.7422C24.2138 32.657 24.4473 33.5562 24.8883 34.3577C25.3293 35.1592 25.9638 35.8375 26.734 36.3311C28.6694 37.6358 30.8389 37.0766 32.929 37.207V35.0164C31.8417 35.0164 30.8066 35.0344 29.7728 35.012C29.0522 35.0293 28.346 34.809 27.7631 34.385C27.1803 33.961 26.7531 33.3569 26.5476 32.6661C26.46 32.371 26.419 32.0622 26.3532 31.7422H24.2091ZM60.1281 23.8176C61.0977 22.8305 62.3531 22.1731 63.7167 21.9387C65.0576 21.7143 66.4349 21.8943 67.6731 22.4557L68.5796 20.5185C65.1214 18.7335 60.5717 19.8861 58.6911 22.2582L60.1281 23.8176ZM71.2169 22.3047L69.6203 23.8114L70.8541 25.5764L72.8572 24.6203L71.2169 22.3047Z" fill="white"/>
<path d="M40.2992 76.7489C40.0434 76.5774 39.8394 76.3391 39.7094 76.06C39.5794 75.7808 39.5283 75.4715 39.5617 75.1653C39.5774 64.9666 39.5809 54.7681 39.5722 44.5701V43.8457H68.1456V44.5067C68.1456 54.7267 68.1491 64.9461 68.1562 75.1647C68.1889 75.4708 68.1377 75.7801 68.0078 76.0592C67.878 76.3384 67.6746 76.5768 67.4194 76.7489H40.2992ZM53.8434 69.0511C56.7865 69.0511 59.7296 69.066 62.6721 69.0455C63.0987 69.0502 63.522 68.9701 63.9174 68.8096C64.3128 68.6492 64.6723 68.4118 64.9751 68.1111C65.2778 67.8105 65.5178 67.4527 65.681 67.0585C65.8442 66.6642 65.9274 66.2415 65.9257 65.8148C65.946 62.1255 65.946 58.4365 65.9257 54.7477C65.9272 54.321 65.8443 53.8983 65.6818 53.5039C65.5193 53.1094 65.2805 52.7509 64.9789 52.449C64.6774 52.1472 64.3192 51.9081 63.9249 51.7452C63.5306 51.5824 63.108 51.499 62.6814 51.5001C60.7554 51.4753 58.8293 51.4896 56.8996 51.5001C56.1024 51.4993 55.3354 51.8049 54.7573 52.3538C54.4453 52.6857 54.1166 53.0015 53.7725 53.3C53.5124 53.5129 53.1955 53.6448 52.8612 53.6791C50.3331 53.7089 47.8044 53.684 45.2764 53.7001C44.8081 53.6666 44.3381 53.7342 43.8985 53.8987C43.4588 54.0631 43.0597 54.3205 42.7285 54.6532C42.3972 54.9858 42.1416 55.3858 41.9789 55.8261C41.8163 56.2665 41.7504 56.7367 41.7859 57.2048C41.7801 59.9799 41.7801 62.7572 41.7859 65.5365C41.7896 67.7048 43.1441 69.0498 45.3273 69.0536C48.1654 69.0552 51.0039 69.0544 53.8428 69.0511H53.8434Z" fill="white"/>
<path d="M22.0098 65.7621H25.2871V46.0508H31.8728V65.7689H35.1862L28.6005 74.5496L22.0098 65.7621Z" fill="white"/>
<path d="M79.1177 46.0002L85.688 54.7606H82.4274V74.4998H75.8417V54.8047H72.5146C74.7687 51.8014 76.9177 48.934 79.1177 46.0002Z" fill="white"/>
<path d="M47.3049 37.1599C47.2714 36.6467 47.2751 36.1317 47.3161 35.6191C47.4258 34.8294 47.8231 34.1079 48.4317 33.5929C49.0404 33.0779 49.8176 32.8057 50.6146 32.8282C54.8028 32.8146 58.9909 32.8226 63.1791 32.822C63.3655 32.822 63.5518 32.8313 63.7382 32.817C64.0249 32.8116 64.2981 32.6943 64.4993 32.4901C64.7006 32.2859 64.8141 32.0111 64.8154 31.7244C64.8167 31.4377 64.7058 31.1618 64.5063 30.9558C64.3069 30.7498 64.0347 30.63 63.7481 30.622C63.5617 30.6046 63.3754 30.6152 63.189 30.6152C57.5911 30.6152 51.9932 30.6152 46.3954 30.6152C44.6396 30.6152 43.3473 29.6832 42.9901 28.1119C42.897 27.4912 42.85 26.8645 42.8496 26.2368H45.0677C45.0677 26.622 45.0503 26.9488 45.0714 27.2725C45.0661 27.424 45.0916 27.575 45.1464 27.7163C45.2012 27.8577 45.2842 27.9864 45.3903 28.0946C45.4964 28.2029 45.6235 28.2885 45.7637 28.3461C45.9039 28.4038 46.0543 28.4323 46.2058 28.43C46.4115 28.448 46.6202 28.4388 46.8271 28.4388C52.4047 28.4388 57.9821 28.4398 63.5593 28.4418C64.3962 28.3931 65.22 28.6665 65.8618 29.2057C66.5037 29.745 66.9149 30.5094 67.0112 31.3422C67.1075 32.175 66.8816 33.013 66.3798 33.6845C65.8779 34.356 65.1382 34.81 64.3123 34.9536C63.9623 35.0003 63.6092 35.0211 63.2561 35.0158C59.2541 35.02 55.2526 35.02 51.2514 35.0158C49.6982 35.0158 49.5075 35.2022 49.472 36.7555C49.472 36.876 49.4571 36.9965 49.4472 37.1562L47.3049 37.1599Z" fill="white"/>
<path d="M39.5927 41.5537C39.5675 41.1605 39.5711 40.766 39.6033 40.3733C39.6253 40.1102 39.7468 39.8653 39.943 39.6886C40.1393 39.512 40.3955 39.4169 40.6595 39.4227C40.8658 39.4109 41.0733 39.4177 41.2808 39.4177H66.2656C67.976 39.4177 68.2649 39.7426 68.1077 41.5543L39.5927 41.5537Z" fill="white"/>
<path d="M63.6992 60.3237C63.7135 60.5169 63.7353 60.6773 63.7359 60.8376C63.7359 62.3909 63.744 63.944 63.7359 65.5016C63.7303 66.4845 63.3594 66.853 62.3803 66.8642C61.5303 66.8735 60.6803 66.8642 59.8329 66.8642C55.0659 66.8642 50.2985 66.8642 45.5307 66.8642C44.3018 66.8642 43.9861 66.5467 43.9843 65.3165C43.9818 63.8669 43.9818 62.4159 43.9843 60.9637C43.9843 60.7618 44.0042 60.5598 44.0172 60.3225L63.6992 60.3237Z" fill="white"/>
<path d="M63.7367 58.0479H43.9795C43.9795 57.7484 43.9751 57.4838 43.9795 57.2191C43.9981 56.2561 44.3796 55.8752 45.3594 55.8727C48.0962 55.8672 50.833 55.8565 53.5698 55.8832C53.8124 55.8926 54.0541 55.8491 54.2781 55.7556C54.5021 55.6622 54.7031 55.5212 54.8671 55.3422C56.9087 53.336 55.9382 53.7342 58.8335 53.6944C60.0357 53.6783 61.2385 53.6832 62.4407 53.6944C63.3459 53.7037 63.7205 54.079 63.7317 54.9868C63.7497 55.9976 63.7367 57.0078 63.7367 58.0479Z" fill="white"/>
</svg>
