<svg width="121" height="103" viewBox="0 0 121 103" fill="none" xmlns="http://www.w3.org/2000/svg">
<path d="M48.1185 26.4088C57.0596 25.9658 66.1143 25.8495 74.7224 23.0537C78.9412 21.7201 82.9167 19.7136 86.4953 17.1116C89.9827 14.5301 92.279 10.7029 95.9943 8.57622C98.159 7.30376 100.638 6.66701 103.148 6.73887C105.658 6.81074 108.097 7.58835 110.185 8.98258C123.595 17.6925 121.097 38.8048 116.812 51.5606C109.393 73.6415 85.833 87.1032 64.6288 93.1347C48.8317 97.6279 31.1503 96.8121 17.857 86.3731C6.63516 77.5606 1.21187 63.6213 4.8856 49.6478C8.07658 37.5114 20.1981 30.9107 31.6765 28.3043C37.0054 27.0965 42.5492 26.684 48.1185 26.4088Z" fill="#3B3B56"/>
<path d="M63.3427 96.123C69.747 98.0354 75.873 100.714 82.6973 102.092C91.1034 103.79 100.94 102.763 107.832 97.2661C116.356 90.4685 115.991 79.1349 112.899 69.57C110.106 60.934 105.617 52.8429 103.279 44.0652C99.6084 30.2836 98.5366 17.6197 86.4095 8.10265C68.3764 -6.04862 39.3886 -1.67348 30.8607 21.3064C29.0769 26.1134 28.4041 31.3274 26.086 35.9038C21.1113 45.7253 9.28555 49.1598 3.22232 58.05C-3.81697 68.3672 1.59018 80.2669 10.6518 87.1732C22.7105 96.3634 37.0463 93.4948 51.21 93.9527C55.3316 94.1436 59.4105 94.8733 63.3427 96.123Z" fill="#DB631A"/>
<path d="M97.2414 47.8607C96.7568 49.8072 96.4753 51.8371 95.7422 53.6817C94.4443 56.9491 92.0566 59.4063 89.1278 61.3131C88.8587 61.4576 88.6396 61.6803 88.4995 61.9518C88.3595 62.2233 88.3049 62.5309 88.3431 62.834C88.4761 65.6758 90.089 67.6658 92.066 69.4602C92.3294 69.6987 92.5965 69.933 92.9892 70.2821C91.6223 71.1886 90.2766 70.9704 88.9787 70.7256C85.4206 70.0528 82.539 68.1368 80.0246 65.6236C79.8119 65.3863 79.5447 65.2041 79.246 65.0929C78.9473 64.9816 78.626 64.9445 78.3098 64.9849C69.3501 65.5043 61.6175 62.893 56.1296 55.4902C50.4136 47.78 52.0458 37.9579 59.7374 32.183C70.1062 24.3969 86.6327 27.0144 94.0472 37.6318C95.7535 40.0013 96.7963 42.7833 97.068 45.6906C97.1066 45.9038 97.1653 46.1129 97.2432 46.315L97.2414 47.8607ZM70.5567 40.9371C70.5567 41.9194 70.5051 42.7679 70.5728 43.6086C70.6174 43.8725 70.5622 44.1437 70.4179 44.3692C70.2737 44.5948 70.0508 44.7586 69.7925 44.8289C67.3694 45.9776 65.3353 47.5824 64.3934 50.2074C63.7491 52.0011 63.5236 53.8601 64.9141 55.4208C66.3045 56.9815 68.1274 56.8062 69.931 56.3104C70.6934 56.101 71.4259 55.7829 72.1845 55.5101L73.1338 57.2062L75.8265 55.4114L74.9449 53.632L75.2257 53.7513C76.8939 51.4525 78.5627 49.1536 80.3104 46.7411C81.0572 46.9538 81.7251 47.381 82.2315 47.9696C82.7378 48.5583 83.0603 49.2827 83.159 50.0528C83.2577 50.823 83.1282 51.6052 82.7866 52.3025C82.4451 52.9998 81.9064 53.5814 81.2374 53.9755C80.2257 54.5231 79.1847 55.0147 78.1191 55.4481L79.381 58.0997C80.4856 57.6679 81.535 57.338 82.5123 56.8602C85.3609 55.4673 86.875 53.2157 86.675 49.975C86.4886 46.8946 84.6986 45.0439 81.9581 43.9212C81.5977 43.7739 81.3368 43.3757 81.0336 43.0936L81.2237 42.7711L78.1234 42.0075L77.7507 43.0942L73.8856 43.3868V40.8761L83.8605 39.9647L83.5716 36.7743L74.1192 37.8306V34.5091L70.7809 34.2202L70.561 37.9338H65.28V40.9363L70.5567 40.9371Z" fill="white"/>
<path d="M51.1291 40.3994C48.7682 51.8313 53.938 59.3322 63.3686 64.7499C60.6845 69.7228 56.1911 73.4733 50.8184 75.2251C47.1658 76.5117 43.2789 76.9969 39.422 76.6477C38.8675 76.6341 38.3286 76.8321 37.9147 77.2013C35.1661 79.8046 32.1267 81.8611 28.302 82.4557C27.1719 82.6321 25.9877 82.7769 24.7532 81.9586C25.3689 81.3901 25.8778 80.9422 26.3611 80.4676C28.0635 78.8031 29.3067 76.9087 29.4322 74.4322C29.4704 74.1477 29.4207 73.8584 29.2898 73.603C29.1588 73.3475 28.9529 73.1383 28.6997 73.0032C24.5954 70.308 21.7294 66.6852 20.8334 61.7695C19.8506 56.3735 21.4547 51.6424 25.0061 47.5822C29.4434 42.5156 35.1723 40.018 41.8202 39.4365C44.6448 39.2219 47.4855 39.4559 50.2369 40.1299C50.5886 40.2063 50.9278 40.3373 51.1291 40.3994ZM50.8961 69.5054C48.7837 61.9336 46.7222 54.519 44.621 47.1157C44.5403 46.9571 44.4229 46.8202 44.2787 46.7161C44.1344 46.6121 43.9675 46.544 43.7916 46.5174C42.5446 46.4503 41.2865 46.5622 40.0433 46.4652C39.0703 46.3888 38.7386 46.7882 38.4969 47.6661C36.9859 53.1478 35.4159 58.6134 33.8701 64.0851C33.3662 65.8676 32.876 67.6526 32.3448 69.5525C33.6818 69.5525 34.8555 69.5152 36.026 69.5668C36.6734 69.5954 36.9113 69.3463 37.0524 68.7418C37.4115 67.2055 37.8184 65.681 38.2732 64.1684C38.3401 64.0078 38.4446 63.8656 38.5779 63.7538C38.7112 63.642 38.8695 63.5639 39.0393 63.526C40.8727 63.4695 42.7087 63.4967 44.6098 63.4967L46.2662 69.5034L50.8961 69.5054Z" fill="white"/>
<path d="M71 52.2118C70.3398 52.5303 69.6658 52.7875 68.982 52.982C68.3571 53.1084 68.0036 52.5602 68 51.6345C67.9947 49.9754 68.6495 48.8431 69.5092 47.8902C69.777 47.5937 70.0832 47.368 70.4952 47L71 52.2118Z" fill="white"/>
<path d="M74.2807 49.8733C74.1996 49.0765 74.1443 48.2758 74.0313 47.4845C73.9237 46.7363 74.0655 46.2787 74.8989 46.2656C75.4807 46.2569 76.0601 46.1247 77 46L74.6007 50L74.2807 49.8733Z" fill="white"/>
<path d="M44 60H39L41.4801 51L44 60Z" fill="white"/>
</svg>
